# This file uses centimeters as units for non-parametric coordinates.

mtllib pick_alone.mtl
g default
v 3.298075 0.000000 -1.160914
v 3.544921 0.000000 -1.160914
v 3.298075 3.137976 -1.160913
v 3.544921 3.137976 -1.160913
v 3.346744 3.221974 -1.160913
v 3.496252 3.221974 -1.160913
v 3.306166 3.301627 -1.160913
v 3.536831 3.301627 -1.160913
v 3.374546 3.779653 -1.160913
v 3.468450 3.779653 -1.160913
v 3.426473 0.000000 -1.160914
v 3.426473 3.137976 -1.160913
v 3.421994 3.221908 -1.160913
v 3.425433 3.301627 -1.160913
v 3.416523 3.887576 -1.160913
v 3.511971 3.592588 -1.160913
v 3.422245 3.567605 -1.160913
v 3.331024 3.592588 -1.160913
v 3.489244 3.703409 -1.160913
v 3.418704 3.703410 -1.160913
v 3.353752 3.703409 -1.160913
v 3.530532 3.440075 -1.160913
v 3.425552 3.432260 -1.160913
v 3.312465 3.440075 -1.160913
v 3.502236 3.262839 -1.160913
v 3.422499 3.262839 -1.160913
v 3.340760 3.262839 -1.160913
v 3.510433 3.180878 -1.160913
v 3.423294 3.180878 -1.160913
v 3.332563 3.180878 -1.160913
v 3.298075 0.000000 -1.075311
v 3.426473 0.000000 -1.075311
v 3.426473 3.137976 -1.075311
v 3.298075 3.137976 -1.075311
v 3.423294 3.180879 -1.075311
v 3.332563 3.180879 -1.075311
v 3.346744 3.221974 -1.075311
v 3.421994 3.221909 -1.075311
v 3.422499 3.262839 -1.075311
v 3.340760 3.262839 -1.075311
v 3.306166 3.301627 -1.075311
v 3.425433 3.301627 -1.075311
v 3.425552 3.432260 -1.075311
v 3.312465 3.440075 -1.075311
v 3.544921 0.000000 -1.075311
v 3.544921 3.137976 -1.075311
v 3.510433 3.180879 -1.075311
v 3.496252 3.221974 -1.075311
v 3.502236 3.262839 -1.075311
v 3.536831 3.301627 -1.075311
v 3.530532 3.440075 -1.075311
v 3.422245 3.567605 -1.075311
v 3.418704 3.703410 -1.075311
v 3.511971 3.592588 -1.075311
v 3.489244 3.703409 -1.075311
v 3.331024 3.592588 -1.075311
v 3.353752 3.703409 -1.075311
v 3.416523 3.887576 -1.075311
v 3.468450 3.779653 -1.075311
v 3.374546 3.779653 -1.075311
vt 0.000000 0.000000
vt 0.564201 0.000000
vt 0.564201 1.000000
vt 0.000000 1.000000
vt 0.000000 0.000000
vt 0.564201 0.000000
vt 0.564201 0.526549
vt 0.000000 0.526549
vt 0.000000 0.000000
vt 0.564201 0.000000
vt 0.564201 0.510294
vt 0.000000 0.510294
vt 0.000000 0.000000
vt 0.564201 0.000000
vt 0.564201 0.266450
vt 0.000000 0.266450
vt 1.000000 0.000000
vt 1.000000 1.000000
vt 1.000000 0.000000
vt 1.000000 0.526549
vt 1.000000 0.000000
vt 1.000000 0.510294
vt 1.000000 0.000000
vt 1.000000 0.266450
vt 0.564201 0.755249
vt 0.564201 0.441245
vt 1.000000 0.441245
vt 1.000000 0.755249
vt 0.000000 0.441245
vt 0.000000 0.755249
vt 0.564201 1.000000
vt 1.000000 1.000000
vt 0.000000 1.000000
vt 0.564201 1.000000
vt 1.000000 1.000000
vt 0.000000 1.000000
vt 0.564201 1.000000
vt 1.000000 1.000000
vt 0.000000 1.000000
vt 0.000000 0.000000
vt 0.000000 1.000000
vt 0.564201 1.000000
vt 0.564201 0.000000
vt 0.000000 0.000000
vt 0.000000 0.526549
vt 0.564201 0.526549
vt 0.564201 0.000000
vt 0.000000 0.000000
vt 0.000000 0.510294
vt 0.564201 0.510294
vt 0.564201 0.000000
vt 0.000000 0.000000
vt 0.000000 0.266450
vt 0.564201 0.266450
vt 0.564201 0.000000
vt 1.000000 1.000000
vt 1.000000 0.000000
vt 1.000000 0.526549
vt 1.000000 0.000000
vt 1.000000 0.510294
vt 1.000000 0.000000
vt 1.000000 0.266450
vt 1.000000 0.000000
vt 0.564201 0.755249
vt 1.000000 0.755249
vt 1.000000 0.441245
vt 0.564201 0.441245
vt 0.000000 0.441245
vt 0.000000 0.755249
vt 0.564201 1.000000
vt 1.000000 1.000000
vt 0.000000 1.000000
vt 0.564201 1.000000
vt 1.000000 1.000000
vt 0.000000 1.000000
vt 0.564201 1.000000
vt 1.000000 1.000000
vt 0.000000 1.000000
vt 0.000000 0.000000
vt 0.564201 0.000000
vt 0.000000 1.000000
vt 0.000000 0.526549
vt 0.000000 0.000000
vt 0.000000 0.510294
vt 0.000000 0.000000
vt 0.000000 0.266450
vt 0.000000 0.000000
vt 1.000000 0.000000
vt 1.000000 1.000000
vt 1.000000 0.000000
vt 1.000000 0.526549
vt 1.000000 0.000000
vt 1.000000 0.510294
vt 1.000000 0.000000
vt 1.000000 0.266450
vt 1.000000 0.441245
vt 1.000000 0.755249
vt 0.000000 0.755249
vt 0.000000 0.441245
vt 1.000000 1.000000
vt 0.564201 1.000000
vt 0.000000 1.000000
vt 1.000000 1.000000
vt 0.000000 1.000000
vt 1.000000 1.000000
vt 0.000000 1.000000
vn 0.000000 0.000000 1.000000
vn 0.000000 0.000000 1.000000
vn 0.000000 0.000000 1.000000
vn 0.000000 0.000000 1.000000
vn 0.000000 0.000000 1.000000
vn 0.000000 0.000000 1.000000
vn 0.000000 0.000000 1.000000
vn 0.000000 0.000000 1.000000
vn 0.000001 0.000000 1.000000
vn 0.000001 0.000000 1.000000
vn 0.000001 0.000000 1.000000
vn 0.000001 0.000000 1.000000
vn 0.000000 0.000000 1.000000
vn 0.000000 0.000000 1.000000
vn 0.000000 0.000000 1.000000
vn 0.000000 0.000000 1.000000
vn 0.000000 0.000000 1.000000
vn 0.000000 0.000000 1.000000
vn 0.000000 0.000000 1.000000
vn 0.000000 0.000000 1.000000
vn 0.000000 0.000000 1.000000
vn 0.000000 0.000000 1.000000
vn 0.000000 0.000000 1.000000
vn 0.000000 0.000000 1.000000
vn -0.000001 0.000000 1.000000
vn -0.000001 0.000000 1.000000
vn -0.000001 0.000000 1.000000
vn -0.000001 0.000000 1.000000
vn -0.000000 0.000000 1.000000
vn -0.000000 0.000000 1.000000
vn -0.000000 0.000000 1.000000
vn -0.000000 0.000000 1.000000
vn -0.000000 0.000000 1.000000
vn -0.000000 0.000000 1.000000
vn -0.000000 0.000000 1.000000
vn -0.000000 0.000000 1.000000
vn 0.000000 0.000000 1.000000
vn 0.000000 0.000000 1.000000
vn 0.000000 0.000000 1.000000
vn 0.000000 0.000000 1.000000
vn -0.000001 0.000000 1.000000
vn -0.000001 0.000000 1.000000
vn -0.000001 0.000000 1.000000
vn -0.000001 0.000000 1.000000
vn 0.000001 0.000000 1.000000
vn 0.000001 0.000000 1.000000
vn 0.000001 0.000000 1.000000
vn 0.000001 0.000000 1.000000
vn -0.000000 0.000000 1.000000
vn -0.000000 0.000000 1.000000
vn -0.000000 0.000000 1.000000
vn -0.000000 0.000000 1.000000
vn 0.000000 0.000000 1.000000
vn 0.000000 0.000000 1.000000
vn 0.000000 0.000000 1.000000
vn 0.000000 0.000000 1.000000
vn 0.000000 0.000000 1.000000
vn 0.000000 0.000000 1.000000
vn 0.000000 0.000000 1.000000
vn 0.000000 0.000000 1.000000
vn 0.000000 0.000000 1.000000
vn 0.000000 0.000000 1.000000
vn 0.000000 0.000000 1.000000
vn 0.000000 0.000000 1.000000
vn 0.000001 0.000000 1.000000
vn 0.000001 0.000000 1.000000
vn 0.000001 0.000000 1.000000
vn 0.000001 0.000000 1.000000
vn -0.000001 0.000000 1.000000
vn -0.000001 0.000000 1.000000
vn -0.000001 0.000000 1.000000
vn -0.000001 0.000000 1.000000
vn 0.000000 0.000000 -1.000000
vn 0.000000 0.000000 -1.000000
vn 0.000000 0.000000 -1.000000
vn 0.000000 0.000000 -1.000000
vn 0.000000 0.000000 -1.000000
vn 0.000000 0.000000 -1.000000
vn 0.000000 0.000000 -1.000000
vn 0.000000 0.000000 -1.000000
vn -0.000001 0.000000 -1.000000
vn -0.000001 0.000000 -1.000000
vn -0.000001 0.000000 -1.000000
vn -0.000001 0.000000 -1.000000
vn -0.000001 0.000000 -1.000000
vn -0.000001 0.000000 -1.000000
vn -0.000001 0.000000 -1.000000
vn -0.000001 0.000000 -1.000000
vn 0.000000 0.000000 -1.000000
vn 0.000000 0.000000 -1.000000
vn 0.000000 0.000000 -1.000000
vn 0.000000 0.000000 -1.000000
vn 0.000000 0.000000 -1.000000
vn 0.000000 0.000000 -1.000000
vn 0.000000 0.000000 -1.000000
vn 0.000000 0.000000 -1.000000
vn 0.000001 0.000000 -1.000000
vn 0.000001 0.000000 -1.000000
vn 0.000001 0.000000 -1.000000
vn 0.000001 0.000000 -1.000000
vn 0.000001 0.000000 -1.000000
vn 0.000001 0.000000 -1.000000
vn 0.000001 0.000000 -1.000000
vn 0.000001 0.000000 -1.000000
vn 0.000000 0.000000 -1.000000
vn 0.000000 0.000000 -1.000000
vn 0.000000 0.000000 -1.000000
vn 0.000000 0.000000 -1.000000
vn -0.000000 0.000000 -1.000000
vn -0.000000 0.000000 -1.000000
vn -0.000000 0.000000 -1.000000
vn -0.000000 0.000000 -1.000000
vn 0.000002 0.000000 -1.000000
vn 0.000002 0.000000 -1.000000
vn 0.000002 0.000000 -1.000000
vn 0.000002 0.000000 -1.000000
vn -0.000003 0.000000 -1.000000
vn -0.000003 0.000000 -1.000000
vn -0.000003 0.000000 -1.000000
vn -0.000003 0.000000 -1.000000
vn 0.000000 0.000000 -1.000000
vn 0.000000 0.000000 -1.000000
vn 0.000000 0.000000 -1.000000
vn 0.000000 0.000000 -1.000000
vn -0.000000 0.000000 -1.000000
vn -0.000000 0.000000 -1.000000
vn -0.000000 0.000000 -1.000000
vn -0.000000 0.000000 -1.000000
vn 0.000000 0.000000 -1.000000
vn 0.000000 0.000000 -1.000000
vn 0.000000 0.000000 -1.000000
vn 0.000000 0.000000 -1.000000
vn 0.000000 0.000000 -1.000000
vn 0.000000 0.000000 -1.000000
vn 0.000000 0.000000 -1.000000
vn 0.000000 0.000000 -1.000000
vn 0.000000 0.000000 -1.000000
vn 0.000000 0.000000 -1.000000
vn 0.000000 0.000000 -1.000000
vn 0.000000 0.000000 -1.000000
vn 0.000000 0.000000 -1.000000
vn 0.000000 0.000000 -1.000000
vn 0.000000 0.000000 -1.000000
vn 0.000000 0.000000 -1.000000
vn 0.000000 -1.000000 0.000000
vn 0.000000 -1.000000 0.000000
vn 0.000000 -1.000000 0.000000
vn 0.000000 -1.000000 0.000000
vn -1.000000 0.000000 0.000000
vn -1.000000 0.000000 0.000000
vn -1.000000 0.000000 0.000000
vn -1.000000 0.000000 0.000000
vn -0.779391 0.626538 -0.000002
vn -0.779391 0.626538 -0.000002
vn -0.779391 0.626538 -0.000002
vn -0.779391 0.626538 -0.000002
vn -0.989450 -0.144873 0.000001
vn -0.989450 -0.144873 0.000001
vn -0.989450 -0.144873 0.000001
vn -0.989450 -0.144873 0.000001
vn -0.998967 0.045451 0.000000
vn -0.998967 0.045451 0.000000
vn -0.998967 0.045451 0.000000
vn -0.998967 0.045451 0.000000
vn 0.000000 -1.000000 0.000000
vn 0.000000 -1.000000 0.000000
vn 0.000000 -1.000000 0.000000
vn 0.000000 -1.000000 0.000000
vn 1.000000 0.000000 0.000000
vn 1.000000 0.000000 0.000000
vn 1.000000 0.000000 0.000000
vn 1.000000 0.000000 0.000000
vn 0.779400 0.626527 -0.000002
vn 0.779400 0.626527 -0.000002
vn 0.779400 0.626527 -0.000002
vn 0.779400 0.626527 -0.000002
vn 0.989447 -0.144897 0.000001
vn 0.989447 -0.144897 0.000001
vn 0.989447 -0.144897 0.000001
vn 0.989447 -0.144897 0.000001
vn 0.998967 0.045448 0.000000
vn 0.998967 0.045448 0.000000
vn 0.998967 0.045448 0.000000
vn 0.998967 0.045448 0.000000
vn 0.979611 0.200905 0.000000
vn 0.979611 0.200905 0.000000
vn 0.979611 0.200905 0.000000
vn 0.979611 0.200905 0.000000
vn -0.979611 0.200905 0.000000
vn -0.979611 0.200905 0.000000
vn -0.979611 0.200905 0.000000
vn -0.979611 0.200905 0.000000
vn 0.964763 0.263121 0.000000
vn 0.964763 0.263121 0.000000
vn 0.964763 0.263121 0.000000
vn 0.964763 0.263121 0.000000
vn 0.901121 0.433567 0.000000
vn 0.901121 0.433567 0.000000
vn 0.901121 0.433567 0.000000
vn 0.901121 0.433567 0.000000
vn -0.931985 0.362498 0.000000
vn -0.931985 0.362498 0.000000
vn -0.931985 0.362498 0.000000
vn -0.931985 0.362498 0.000000
vn -0.964763 0.263121 0.000000
vn -0.964763 0.263121 0.000000
vn -0.964763 0.263121 0.000000
vn -0.964763 0.263121 0.000000
vn 0.992676 0.120807 0.000000
vn 0.992676 0.120807 0.000000
vn 0.992676 0.120807 0.000000
vn 0.992676 0.120807 0.000000
vn -0.992677 0.120800 0.000000
vn -0.992677 0.120800 0.000000
vn -0.992677 0.120800 0.000000
vn -0.992677 0.120800 0.000000
vn 0.746303 -0.665607 0.000000
vn 0.746303 -0.665607 0.000000
vn 0.746303 -0.665607 0.000000
vn 0.746303 -0.665607 0.000000
vn -0.746299 -0.665611 0.000000
vn -0.746299 -0.665611 0.000000
vn -0.746299 -0.665611 0.000000
vn -0.746299 -0.665611 0.000000
vn 0.945300 0.326201 -0.000002
vn 0.945300 0.326201 -0.000002
vn 0.945300 0.326201 -0.000002
vn 0.945300 0.326201 -0.000002
vn -0.945308 0.326180 -0.000002
vn -0.945308 0.326180 -0.000002
vn -0.945308 0.326180 -0.000002
vn -0.945308 0.326180 -0.000002
s off
g polySurface3 picketFence:Mesh
usemtl picketFence:lambert2SG
f 31/1/1 32/2/2 33/3/3 34/4/4
f 34/5/5 33/6/6 35/7/7 36/8/8
f 37/9/9 38/10/10 39/11/11 40/12/12
f 41/13/13 42/14/14 43/15/15 44/16/16
f 32/2/17 45/17/18 46/18/19 33/3/20
f 35/7/21 33/6/22 46/19/23 47/20/24
f 39/11/25 38/10/26 48/21/27 49/22/28
f 43/15/29 42/14/30 50/23/31 51/24/32
f 53/25/33 52/26/34 54/27/35 55/28/36
f 56/29/37 52/26/38 53/25/39 57/30/40
f 58/31/41 53/25/42 55/28/43 59/32/44
f 57/30/45 53/25/46 58/31/47 60/33/48
f 52/26/49 43/15/50 51/24/51 54/27/52
f 44/16/53 43/15/54 52/26/55 56/29/56
f 42/34/57 39/11/58 49/22/59 50/35/60
f 40/12/61 39/11/62 42/34/63 41/36/64
f 38/37/65 35/7/66 47/20/67 48/38/68
f 36/8/69 35/7/70 38/37/71 37/39/72
f 1/40/73 3/41/74 12/42/75 11/43/76
f 3/44/77 30/45/78 29/46/79 12/47/80
f 5/48/81 27/49/82 26/50/83 13/51/84
f 7/52/85 24/53/86 23/54/87 14/55/88
f 11/43/89 12/42/90 4/56/91 2/57/92
f 29/46/93 28/58/94 4/59/95 12/47/96
f 26/50/97 25/60/98 6/61/99 13/51/100
f 23/54/101 22/62/102 8/63/103 14/55/104
f 20/64/105 19/65/106 16/66/107 17/67/108
f 18/68/109 21/69/110 20/64/111 17/67/112
f 15/70/113 10/71/114 19/65/115 20/64/116
f 21/69/117 9/72/118 15/70/119 20/64/120
f 17/67/121 16/66/122 22/62/123 23/54/124
f 24/53/125 18/68/126 17/67/127 23/54/128
f 14/73/129 8/74/130 25/60/131 26/50/132
f 27/49/133 7/75/134 14/73/135 26/50/136
f 13/76/137 6/77/138 28/58/139 29/46/140
f 30/45/141 5/78/142 13/76/143 29/46/144
f 1/79/145 11/80/146 32/2/147 31/1/148
f 3/81/149 1/79/150 31/1/151 34/4/152
f 30/82/153 3/83/154 34/5/155 36/8/156
f 27/84/157 5/85/158 37/9/159 40/12/160
f 24/86/161 7/87/162 41/13/163 44/16/164
f 11/80/165 2/88/166 45/17/167 32/2/168
f 2/88/169 4/89/170 46/18/171 45/17/172
f 4/90/173 28/91/174 47/20/175 46/19/176
f 6/92/177 25/93/178 49/22/179 48/21/180
f 8/94/181 22/95/182 51/24/183 50/23/184
f 16/96/185 19/97/186 55/28/187 54/27/188
f 21/98/189 18/99/190 56/29/191 57/30/192
f 19/97/193 10/100/194 59/32/195 55/28/196
f 10/100/197 15/101/198 58/31/199 59/32/200
f 15/101/201 9/102/202 60/33/203 58/31/204
f 9/102/205 21/98/206 57/30/207 60/33/208
f 22/95/209 16/96/210 54/27/211 51/24/212
f 18/99/213 24/86/214 44/16/215 56/29/216
f 25/93/217 8/103/218 50/35/219 49/22/220
f 7/104/221 27/84/222 40/12/223 41/36/224
f 28/91/225 6/105/226 48/38/227 47/20/228
f 5/106/229 30/82/230 36/8/231 37/39/232
